<svg width="1856" height="1310" fill="none" xmlns="http://www.w3.org/2000/svg"><g clip-path="url(#clip0)"><g opacity=".8" filter="url(#filter0_f)"><path d="M928 1182c441.83 0 800-48.35 800-108s-358.17-108-800-108c-441.828 0-800 48.35-800 108s358.172 108 800 108z" fill="#D4D4D4"/></g><g opacity=".379" filter="url(#filter1_f)"><path fill-rule="evenodd" clip-rule="evenodd" d="M209.367 1045.96H1664.01v-9.26H209.367v9.26z" fill="url(#paint0_linear)"/></g><g filter="url(#filter2_f)"><path fill-rule="evenodd" clip-rule="evenodd" d="M71.56 1048.76h1455.25v3.71H71.56v-3.71z" fill="url(#paint1_linear)"/></g><g filter="url(#filter3_f)"><path fill-rule="evenodd" clip-rule="evenodd" d="M1784.05 1048.76H328.8v3.71h1455.25v-3.71z" fill="url(#paint2_linear)"/></g><g opacity=".05" filter="url(#filter4_f)"><path fill-rule="evenodd" clip-rule="evenodd" d="M168.944 1000.07c0-5.852 8.107-10.599 18.143-10.599H1683.23c10.02 0 18.14 4.758 18.14 10.599v42.8c0 5.85-8.11 10.6-18.14 10.6H187.087c-10.02 0-18.143-4.76-18.143-10.6v-42.8z" fill="#000"/></g></g><path d="M164.964 1004.2c4.841 6.27 12.426 10.3 20.959 10.3H1670.17c8.25 0 15.62-3.77 20.47-9.69 3.75-4.57 6-10.428 6-34.486V74.215c0-30.893-4.79-46.793-15.62-57.858C1669.41 4.493 1656.94 0 1629.59 0H231.794c-31.536 0-48.036 5.853-59.601 18.698-9.229 10.252-12.749 24.361-12.749 55.517v896.109c0 23.775 2.059 29.396 5.52 33.876z" fill="#F3F4F5"/><path fill-rule="evenodd" clip-rule="evenodd" d="M4 1012.94h1840v13.11H4v-13.11z" fill="url(#paint3_linear)"/><g opacity=".474"><path opacity=".474" d="M760.982 1012.94h327.648v5.73c0 3.17-2.54 5.74-5.75 5.74H766.739a5.73 5.73 0 01-5.757-5.74v-5.73z" fill="url(#paint4_linear)"/><path d="M760.982 1012.94h327.648v5.73c0 3.17-2.54 5.74-5.75 5.74H766.739a5.73 5.73 0 01-5.757-5.74v-5.73z" fill="#fff" opacity=".474"/></g><path fill-rule="evenodd" clip-rule="evenodd" d="M927.228 1024.41l916.772 1.64s-44.11 21.32-293.75 21.32H927.228 297.754C48.242 1047.37 4 1026.05 4 1026.05l923.228-1.64z" fill="url(#paint5_linear)"/><path fill="#E8EBEF" d="M228 72h1400v877H228z"/><defs><linearGradient id="paint1_linear" x1="1493.74" y1="1050.62" x2="71.56" y2="1050.62" gradientUnits="userSpaceOnUse"><stop stop-color="#fff" stop-opacity="0"/><stop offset=".853"/><stop offset="1" stop-opacity="0"/></linearGradient><linearGradient id="paint0_linear" x1="1630.95" y1="1041.33" x2="209.367" y2="1041.33" gradientUnits="userSpaceOnUse"><stop stop-opacity="0"/><stop offset=".142"/><stop offset=".491"/><stop offset=".853"/><stop offset="1" stop-opacity="0"/></linearGradient><linearGradient id="paint2_linear" x1="361.874" y1="1050.62" x2="1784.05" y2="1050.62" gradientUnits="userSpaceOnUse"><stop stop-color="#fff" stop-opacity="0"/><stop offset=".853"/><stop offset="1" stop-opacity="0"/></linearGradient><linearGradient id="paint3_linear" x1="4" y1="1012.94" x2="1844" y2="1012.94" gradientUnits="userSpaceOnUse"><stop stop-color="#B9B9B9" stop-opacity=".7"/><stop offset=".029" stop-color="#EBEBEB"/><stop offset=".113" stop-color="#FAFAFA"/><stop offset=".229" stop-color="#E5E5E6"/><stop offset=".405" stop-color="#E7E7E7"/><stop offset=".595" stop-color="#E7E7E7"/><stop offset=".741" stop-color="#E5E5E6"/><stop offset=".875" stop-color="#FAFAFA"/><stop offset=".973" stop-color="#DFDFE0"/><stop offset="1" stop-color="#C1C1C1"/></linearGradient><linearGradient id="paint4_linear" x1="760.982" y1="1018.67" x2="1088.63" y2="1018.67" gradientUnits="userSpaceOnUse"><stop stop-color="#898A8C"/><stop offset=".022" stop-color="#BCBDBF"/><stop offset=".066" stop-color="#E0E1E1"/><stop offset=".129" stop-color="#EDEEEF"/><stop offset=".332" stop-color="#F0F1F2"/><stop offset=".514" stop-color="#EEEFF0"/><stop offset=".73" stop-color="#EEEFF0"/><stop offset=".935" stop-color="#DFE0E1"/><stop offset=".977" stop-color="#BFC0C2"/><stop offset="1" stop-color="#97989A"/></linearGradient><linearGradient id="paint5_linear" x1="924" y1="1024.41" x2="924" y2="1047.37" gradientUnits="userSpaceOnUse"><stop stop-color="#E0E0E0"/><stop offset="1" stop-color="#BFBFBF"/></linearGradient><filter id="filter1_f" x="207.104" y="1034.44" width="1459.17" height="13.788" filterUnits="userSpaceOnUse" color-interpolation-filters="sRGB"><feFlood flood-opacity="0" result="BackgroundImageFix"/><feBlend in="SourceGraphic" in2="BackgroundImageFix" result="shape"/><feGaussianBlur stdDeviation="1.132" result="effect1_foregroundBlur"/></filter><filter id="filter2_f" x="69.296" y="1046.5" width="1459.78" height="8.232" filterUnits="userSpaceOnUse" color-interpolation-filters="sRGB"><feFlood flood-opacity="0" result="BackgroundImageFix"/><feBlend in="SourceGraphic" in2="BackgroundImageFix" result="shape"/><feGaussianBlur stdDeviation="1.132" result="effect1_foregroundBlur"/></filter><filter id="filter3_f" x="325.18" y="1045.14" width="1462.49" height="10.948" filterUnits="userSpaceOnUse" color-interpolation-filters="sRGB"><feFlood flood-opacity="0" result="BackgroundImageFix"/><feBlend in="SourceGraphic" in2="BackgroundImageFix" result="shape"/><feGaussianBlur stdDeviation="1.811" result="effect1_foregroundBlur"/></filter><filter id="filter4_f" x="120.944" y="941.471" width="1628.42" height="160" filterUnits="userSpaceOnUse" color-interpolation-filters="sRGB"><feFlood flood-opacity="0" result="BackgroundImageFix"/><feBlend in="SourceGraphic" in2="BackgroundImageFix" result="shape"/><feGaussianBlur stdDeviation="24" result="effect1_foregroundBlur"/></filter><filter id="filter0_f" x="0" y="838" width="1856" height="472" filterUnits="userSpaceOnUse" color-interpolation-filters="sRGB"><feFlood flood-opacity="0" result="BackgroundImageFix"/><feBlend in="SourceGraphic" in2="BackgroundImageFix" result="shape"/><feGaussianBlur stdDeviation="64" result="effect1_foregroundBlur"/></filter><clipPath id="clip0"><path fill="#fff" transform="translate(0 854)" d="M0 0h1856v456H0z"/></clipPath></defs></svg>