<svg width="25" height="25" viewBox="0 0 25 25" fill="none" xmlns="http://www.w3.org/2000/svg">
<circle cx="12.5" cy="12.5" r="12.5" fill="#0D7D69"/>
<path d="M13.5176 19.8828C13.1855 20.0911 12.8079 20.1953 12.3848 20.1953C11.9616 20.1953 11.584 20.0911 11.252 19.8828C10.9199 20.0911 10.6107 20.1953 10.3242 20.1953C10.0443 20.1953 9.81315 20.1693 9.63086 20.1172C9.44857 20.0716 9.28906 20.0065 9.15234 19.9219C8.8724 19.7526 8.73242 19.541 8.73242 19.2871C8.73242 19.1569 8.76823 19.043 8.83984 18.9453C8.98307 19.056 9.16536 19.1113 9.38672 19.1113C9.96615 19.1113 10.3665 18.8639 10.5879 18.3691V13.5938C10.5879 13.2943 10.526 13.0729 10.4023 12.9297C10.207 12.6888 9.87174 12.4512 9.39648 12.2168C9.83919 12.015 10.1257 11.8359 10.2559 11.6797C10.4772 11.4258 10.5879 11.1393 10.5879 10.8203V6.69922C10.3665 6.19792 9.96615 5.94727 9.38672 5.94727C9.16536 5.94727 8.98307 6.0026 8.83984 6.11328C8.76823 6.01562 8.73242 5.90495 8.73242 5.78125C8.73242 5.65104 8.76823 5.5306 8.83984 5.41992C8.91797 5.30924 9.02214 5.21484 9.15234 5.13672C9.45182 4.95443 9.79362 4.86328 10.1777 4.86328C10.5684 4.86328 10.9264 4.9707 11.252 5.18555C11.5905 4.9707 11.9681 4.86328 12.3848 4.86328C12.8014 4.86328 13.179 4.9707 13.5176 5.18555C13.8431 4.9707 14.1491 4.86328 14.4355 4.86328C14.722 4.86328 14.9564 4.88932 15.1387 4.94141C15.321 4.98698 15.4805 5.05208 15.6172 5.13672C15.8971 5.30599 16.0371 5.51758 16.0371 5.77148C16.0371 5.90169 16.0013 6.01562 15.9297 6.11328C15.7865 6.0026 15.6042 5.94727 15.3828 5.94727C14.8034 5.94727 14.403 6.19792 14.1816 6.69922V10.8203C14.1816 11.1393 14.25 11.377 14.3867 11.5332C14.6016 11.7871 14.9303 12.015 15.373 12.2168C14.8978 12.4512 14.5951 12.6432 14.4648 12.793C14.276 13.0273 14.1816 13.2943 14.1816 13.5938V18.3691C14.403 18.8639 14.8034 19.1113 15.3828 19.1113C15.6042 19.1113 15.7865 19.056 15.9297 18.9453C16.0013 19.043 16.0371 19.1569 16.0371 19.2871C16.0371 19.4108 15.998 19.528 15.9199 19.6387C15.8483 19.7493 15.7474 19.8438 15.6172 19.9219C15.3177 20.1042 14.9759 20.1953 14.5918 20.1953C14.2077 20.1953 13.8496 20.0911 13.5176 19.8828ZM11.5254 17.4121C11.8509 17.2884 12.0299 16.862 12.0625 16.1328C12.1016 15.4036 12.1211 14.3945 12.1211 13.1055C12.1211 11.8164 12.1178 10.9603 12.1113 10.5371C12.1113 10.1074 12.1081 9.76237 12.1016 9.50195C12.082 8.73372 12.0072 8.27148 11.877 8.11523C11.7533 7.95247 11.6361 7.84505 11.5254 7.79297C11.5254 10.0586 11.4863 11.3477 11.4082 11.6602C11.3171 11.9206 11.0957 12.1061 10.7441 12.2168C11.1348 12.3535 11.3561 12.5195 11.4082 12.7148C11.4863 13.0273 11.5254 14.1699 11.5254 16.1426V17.4121Z" fill="white"/>
</svg>
