<svg width="242" height="60" viewBox="0 0 242 60" fill="none" xmlns="http://www.w3.org/2000/svg">
<circle cx="25" cy="34" r="25" fill="#0E7572"/>
<path d="M27.0352 47.7656C26.3711 48.1823 25.6159 48.3906 24.7695 48.3906C23.9232 48.3906 23.168 48.1823 22.5039 47.7656C21.8398 48.1823 21.2214 48.3906 20.6484 48.3906C20.0885 48.3906 19.6263 48.3385 19.2617 48.2344C18.8971 48.1432 18.5781 48.013 18.3047 47.8438C17.7448 47.5052 17.4648 47.082 17.4648 46.5742C17.4648 46.3138 17.5365 46.0859 17.6797 45.8906C17.9661 46.112 18.3307 46.2227 18.7734 46.2227C19.9323 46.2227 20.7331 45.7279 21.1758 44.7383V35.1875C21.1758 34.5885 21.0521 34.1458 20.8047 33.8594C20.4141 33.3776 19.7435 32.9023 18.793 32.4336C19.6784 32.0299 20.2513 31.6719 20.5117 31.3594C20.9544 30.8516 21.1758 30.2786 21.1758 29.6406V21.3984C20.7331 20.3958 19.9323 19.8945 18.7734 19.8945C18.3307 19.8945 17.9661 20.0052 17.6797 20.2266C17.5365 20.0312 17.4648 19.8099 17.4648 19.5625C17.4648 19.3021 17.5365 19.0612 17.6797 18.8398C17.8359 18.6185 18.0443 18.4297 18.3047 18.2734C18.9036 17.9089 19.5872 17.7266 20.3555 17.7266C21.1367 17.7266 21.8529 17.9414 22.5039 18.3711C23.181 17.9414 23.9362 17.7266 24.7695 17.7266C25.6029 17.7266 26.3581 17.9414 27.0352 18.3711C27.6862 17.9414 28.2982 17.7266 28.8711 17.7266C29.444 17.7266 29.9128 17.7786 30.2773 17.8828C30.6419 17.974 30.9609 18.1042 31.2344 18.2734C31.7943 18.612 32.0742 19.0352 32.0742 19.543C32.0742 19.8034 32.0026 20.0312 31.8594 20.2266C31.5729 20.0052 31.2083 19.8945 30.7656 19.8945C29.6068 19.8945 28.806 20.3958 28.3633 21.3984V29.6406C28.3633 30.2786 28.5 30.7539 28.7734 31.0664C29.2031 31.5742 29.8607 32.0299 30.7461 32.4336C29.7956 32.9023 29.1901 33.2865 28.9297 33.5859C28.5521 34.0547 28.3633 34.5885 28.3633 35.1875V44.7383C28.806 45.7279 29.6068 46.2227 30.7656 46.2227C31.2083 46.2227 31.5729 46.112 31.8594 45.8906C32.0026 46.0859 32.0742 46.3138 32.0742 46.5742C32.0742 46.8216 31.9961 47.056 31.8398 47.2773C31.6966 47.4987 31.4948 47.6875 31.2344 47.8438C30.6354 48.2083 29.9518 48.3906 29.1836 48.3906C28.4154 48.3906 27.6992 48.1823 27.0352 47.7656ZM23.0508 42.8242C23.7018 42.5768 24.0599 41.724 24.125 40.2656C24.2031 38.8073 24.2422 36.7891 24.2422 34.2109C24.2422 31.6328 24.2357 29.9206 24.2227 29.0742C24.2227 28.2148 24.2161 27.5247 24.2031 27.0039C24.1641 25.4674 24.0143 24.543 23.7539 24.2305C23.5065 23.9049 23.2721 23.6901 23.0508 23.5859C23.0508 28.1172 22.9727 30.6953 22.8164 31.3203C22.6341 31.8411 22.1914 32.2122 21.4883 32.4336C22.2695 32.707 22.7122 33.0391 22.8164 33.4297C22.9727 34.0547 23.0508 36.3398 23.0508 40.2852V42.8242Z" fill="white"/>
<path d="M94.5 49H91.1V34.45C91.1 31.45 90.6167 29.2333 89.65 27.8C88.6833 26.3333 87.25 25.6 85.35 25.6C83.35 25.6 81.5833 26.3 80.05 27.7C78.5167 29.1 77.4333 30.9 76.8 33.1V49H73.4V34.45C73.4 31.3833 72.9167 29.15 71.95 27.75C71.0167 26.3167 69.6 25.6 67.7 25.6C65.7333 25.6 63.9667 26.2833 62.4 27.65C60.8667 29.0167 59.7833 30.8167 59.15 33.05V49H55.75V22.95H58.85V28.85C59.9167 26.85 61.3167 25.3 63.05 24.2C64.7833 23.0667 66.7 22.5 68.8 22.5C70.9667 22.5 72.7167 23.1333 74.05 24.4C75.3833 25.6333 76.2 27.2333 76.5 29.2C78.9 24.7333 82.25 22.5 86.55 22.5C89.4833 22.5 91.5333 23.5333 92.7 25.6C93.9 27.6333 94.5 30.35 94.5 33.75V49ZM114.997 49.5C112.831 49.5 110.881 48.9333 109.147 47.8C107.447 46.6667 106.097 45.2667 105.097 43.6V59.65H101.697V22.95H104.747V28C105.781 26.3667 107.147 25.05 108.847 24.05C110.581 23.0167 112.447 22.5 114.447 22.5C116.247 22.5 117.897 22.8833 119.397 23.65C120.897 24.3833 122.197 25.3833 123.297 26.65C124.431 27.9167 125.297 29.3667 125.897 31C126.497 32.6 126.797 34.2667 126.797 36C126.797 38.4333 126.297 40.6833 125.297 42.75C124.331 44.7833 122.947 46.4167 121.147 47.65C119.381 48.8833 117.331 49.5 114.997 49.5ZM114.047 46.5C115.947 46.5 117.581 46 118.947 45C120.347 43.9667 121.431 42.65 122.197 41.05C122.964 39.45 123.347 37.7667 123.347 36C123.347 34.1333 122.914 32.4 122.047 30.8C121.181 29.2 120.014 27.9167 118.547 26.95C117.114 25.9833 115.481 25.5 113.647 25.5C112.514 25.5 111.314 25.8 110.047 26.4C108.814 26.9667 107.714 27.75 106.747 28.75C105.814 29.7167 105.264 30.7833 105.097 31.95V39.95C105.864 41.7833 107.064 43.3333 108.697 44.6C110.331 45.8667 112.114 46.5 114.047 46.5ZM143.807 49.5C141.307 49.5 139.073 48.8833 137.107 47.65C135.14 46.4167 133.59 44.7667 132.457 42.7C131.323 40.6333 130.757 38.3667 130.757 35.9C130.757 33.4667 131.307 31.2333 132.407 29.2C133.54 27.1667 135.09 25.55 137.057 24.35C139.023 23.1167 141.257 22.5 143.757 22.5C146.323 22.5 148.573 23.1167 150.507 24.35C152.44 25.5833 153.94 27.2167 155.007 29.25C156.107 31.25 156.657 33.45 156.657 35.85C156.657 36.3833 156.64 36.8333 156.607 37.2H134.307C134.473 39.0667 135.007 40.7333 135.907 42.2C136.807 43.6333 137.957 44.7833 139.357 45.65C140.757 46.4833 142.29 46.9 143.957 46.9C145.657 46.9 147.257 46.4667 148.757 45.6C150.257 44.7333 151.323 43.6 151.957 42.2L154.907 43C154.373 44.2667 153.54 45.4 152.407 46.4C151.307 47.3667 150.023 48.1333 148.557 48.7C147.09 49.2333 145.507 49.5 143.807 49.5ZM134.207 34.75H153.457C153.323 32.8833 152.807 31.2333 151.907 29.8C151.007 28.3333 149.857 27.2 148.457 26.4C147.057 25.5667 145.507 25.15 143.807 25.15C142.107 25.15 140.557 25.5667 139.157 26.4C137.757 27.2 136.607 28.3333 135.707 29.8C134.84 31.2333 134.34 32.8833 134.207 34.75ZM183.802 49H180.402V34.45C180.402 31.3833 179.936 29.15 179.002 27.75C178.102 26.3167 176.702 25.6 174.802 25.6C173.469 25.6 172.152 25.9333 170.852 26.6C169.552 27.2333 168.402 28.1167 167.402 29.25C166.436 30.35 165.736 31.6167 165.302 33.05V49H161.902V22.95H165.002V28.85C166.036 26.95 167.552 25.4167 169.552 24.25C171.552 23.0833 173.719 22.5 176.052 22.5C177.986 22.5 179.519 22.9667 180.652 23.9C181.786 24.8 182.586 26.1 183.052 27.8C183.552 29.4667 183.802 31.45 183.802 33.75V49ZM199.603 49.5C197.469 49.5 195.486 49.15 193.653 48.45C191.853 47.7167 190.269 46.65 188.903 45.25L190.303 42.85C191.769 44.2167 193.236 45.2167 194.703 45.85C196.203 46.45 197.786 46.75 199.453 46.75C201.453 46.75 203.086 46.35 204.353 45.55C205.653 44.7167 206.303 43.5333 206.303 42C206.303 40.9667 205.986 40.1833 205.353 39.65C204.753 39.0833 203.869 38.6333 202.703 38.3C201.569 37.9667 200.203 37.5833 198.603 37.15C196.803 36.65 195.286 36.1333 194.053 35.6C192.853 35.0333 191.936 34.3333 191.303 33.5C190.703 32.6333 190.403 31.5167 190.403 30.15C190.403 28.4833 190.819 27.0833 191.653 25.95C192.519 24.8167 193.686 23.9667 195.153 23.4C196.653 22.8 198.319 22.5 200.153 22.5C202.153 22.5 203.919 22.8167 205.453 23.45C206.986 24.0833 208.236 24.9667 209.203 26.1L207.553 28.4C206.653 27.3333 205.536 26.55 204.203 26.05C202.903 25.5167 201.486 25.25 199.953 25.25C198.886 25.25 197.869 25.4 196.903 25.7C195.936 25.9667 195.136 26.4333 194.503 27.1C193.903 27.7333 193.603 28.6167 193.603 29.75C193.603 31.15 194.119 32.1167 195.153 32.65C196.186 33.1833 197.753 33.75 199.853 34.35C201.819 34.8833 203.536 35.4167 205.003 35.95C206.469 36.4833 207.603 37.2 208.403 38.1C209.203 38.9667 209.603 40.1833 209.603 41.75C209.603 44.1833 208.686 46.0833 206.853 47.45C205.019 48.8167 202.603 49.5 199.603 49.5ZM213.123 41.5C213.123 39.9 213.589 38.5167 214.523 37.35C215.456 36.15 216.739 35.2167 218.373 34.55C220.039 33.8833 221.956 33.55 224.123 33.55C225.389 33.55 226.706 33.6667 228.073 33.9C229.439 34.1 230.656 34.3833 231.723 34.75V32.55C231.723 30.35 231.073 28.6 229.773 27.3C228.473 26 226.673 25.35 224.373 25.35C223.006 25.35 221.639 25.6167 220.273 26.15C218.906 26.65 217.489 27.4 216.023 28.4L214.723 26C216.423 24.8333 218.089 23.9667 219.723 23.4C221.356 22.8 223.023 22.5 224.723 22.5C227.923 22.5 230.456 23.4167 232.323 25.25C234.189 27.0833 235.123 29.6167 235.123 32.85V44.9C235.123 45.8 235.539 46.2667 236.373 46.3V49C235.639 49.1 235.123 49.1333 234.823 49.1C233.989 49.0667 233.356 48.8 232.923 48.3C232.489 47.8 232.256 47.2667 232.223 46.7L232.173 44.8C231.006 46.3 229.489 47.4667 227.623 48.3C225.756 49.1 223.856 49.5 221.923 49.5C220.223 49.5 218.706 49.15 217.373 48.45C216.039 47.7167 214.989 46.75 214.223 45.55C213.489 44.3167 213.123 42.9667 213.123 41.5ZM230.573 43.5C231.339 42.6 231.723 41.7667 231.723 41V37.2C229.423 36.3 227.023 35.85 224.523 35.85C222.089 35.85 220.123 36.3333 218.623 37.3C217.123 38.2667 216.373 39.5833 216.373 41.25C216.373 42.6833 216.923 43.9833 218.023 45.15C219.156 46.3167 220.723 46.9 222.723 46.9C224.356 46.9 225.873 46.5833 227.273 45.95C228.706 45.3167 229.806 44.5 230.573 43.5Z" fill="black"/>
</svg>
