<svg width="288" height="70" viewBox="0 0 288 70" fill="none" xmlns="http://www.w3.org/2000/svg">
<circle cx="35" cy="35" r="35" fill="#7289DA"/>
<path d="M30.4043 15.0518C32.1589 15.0518 33.6359 15.9917 34.8354 17.8716C34.8892 17.8 34.9518 17.7015 35.0234 17.5762C35.113 17.4508 35.3009 17.2271 35.5874 16.9048C35.8918 16.5646 36.2051 16.2692 36.5273 16.0186C37.3688 15.374 38.2371 15.0518 39.1323 15.0518C40.0275 15.0518 40.7078 15.186 41.1733 15.4546C41.6567 15.7231 41.9342 15.9827 42.0059 16.2334L42.1133 16.6362C40.8779 17.8358 40.0275 19.098 39.562 20.4229C39.0965 21.7477 38.8638 23.4396 38.8638 25.4985C38.8638 27.5396 38.9354 29.1688 39.0786 30.3862C39.2218 31.5858 39.4009 32.5078 39.6157 33.1523C39.8306 33.7969 40.0633 34.3429 40.314 34.7905C40.5825 35.2202 40.8242 35.5156 41.0391 35.6768C41.5404 36.0885 41.791 36.3929 41.791 36.5898C41.791 36.7868 41.6925 36.9748 41.4956 37.1538C41.2987 37.3328 41.057 37.6014 40.7705 37.9595C40.484 38.3175 40.1976 38.792 39.9111 39.3828C39.2129 40.7972 38.8638 43.0083 38.8638 46.0161C38.8638 49.0239 39.0965 51.2529 39.562 52.7031C40.0275 54.1354 40.8779 55.4782 42.1133 56.7314C42.1133 57.376 41.612 57.8594 40.6094 58.1816C40.2334 58.2891 39.7052 58.3428 39.0249 58.3428C38.3625 58.3428 37.6642 58.0832 36.9302 57.564C36.1961 57.0448 35.668 56.5345 35.3457 56.0332L34.8354 55.2544C34.7638 55.4334 34.549 55.7467 34.1909 56.1943C33.8328 56.6419 33.4927 57 33.1704 57.2686C32.311 57.9847 31.5054 58.3428 30.7534 58.3428C30.0194 58.3428 29.4644 58.2891 29.0884 58.1816C28.7124 58.0742 28.4349 57.9399 28.2559 57.7788C27.862 57.4207 27.6382 57.0716 27.5845 56.7314C28.8198 55.4782 29.6702 54.1354 30.1357 52.7031C30.6012 51.2529 30.834 49.4447 30.834 47.2783C30.834 45.0941 30.7355 43.3843 30.5386 42.1489C30.3416 40.9136 30.0999 40.0005 29.8135 39.4097C29.527 38.8009 29.2316 38.3175 28.9272 37.9595C28.6408 37.6014 28.3991 37.3328 28.2021 37.1538C28.0052 36.9748 27.9067 36.8047 27.9067 36.6436C27.9067 36.4824 28.0052 36.3123 28.2021 36.1333C28.3991 35.9543 28.6408 35.6947 28.9272 35.3545C29.2316 35.0143 29.527 34.5399 29.8135 33.9312C30.4938 32.481 30.834 30.1982 30.834 27.083C30.834 23.9678 30.6012 21.7477 30.1357 20.4229C29.6702 19.098 28.8198 17.8358 27.5845 16.6362C27.5845 15.9917 28.0768 15.5173 29.0615 15.2129C29.4554 15.1055 29.903 15.0518 30.4043 15.0518Z" fill="white"/>
<path d="M81.73 17.885H87.065V56H81.73V17.885ZM96.1705 28.225C97.3438 27.9317 98.8838 27.62 100.791 27.29C102.734 26.96 104.971 26.795 107.501 26.795C109.334 26.795 110.874 27.0517 112.121 27.565C113.367 28.0417 114.412 28.7567 115.256 29.71C115.512 29.5267 115.916 29.27 116.466 28.94C117.016 28.61 117.694 28.2983 118.501 28.005C119.307 27.675 120.206 27.4 121.196 27.18C122.186 26.9233 123.249 26.795 124.386 26.795C126.586 26.795 128.382 27.125 129.776 27.785C131.169 28.4083 132.251 29.3067 133.021 30.48C133.827 31.6533 134.359 33.0467 134.616 34.66C134.909 36.2733 135.056 38.0333 135.056 39.94V56H129.941V41.04C129.941 39.3533 129.849 37.905 129.666 36.695C129.519 35.485 129.207 34.4767 128.731 33.67C128.291 32.8633 127.667 32.2767 126.861 31.91C126.091 31.5067 125.082 31.305 123.836 31.305C122.112 31.305 120.682 31.5433 119.546 32.02C118.446 32.46 117.694 32.8633 117.291 33.23C117.584 34.1833 117.804 35.2283 117.951 36.365C118.097 37.5017 118.171 38.6933 118.171 39.94V56H113.056V41.04C113.056 39.3533 112.964 37.905 112.781 36.695C112.597 35.485 112.267 34.4767 111.791 33.67C111.351 32.8633 110.727 32.2767 109.921 31.91C109.151 31.5067 108.161 31.305 106.951 31.305C106.437 31.305 105.887 31.3233 105.301 31.36C104.714 31.3967 104.146 31.4517 103.596 31.525C103.082 31.5617 102.606 31.6167 102.166 31.69C101.726 31.7633 101.432 31.8183 101.286 31.855V56H96.1705V28.225ZM163.399 41.755C163.399 38.4183 162.574 35.8517 160.924 34.055C159.274 32.2583 157.074 31.36 154.324 31.36C152.784 31.36 151.574 31.415 150.694 31.525C149.85 31.635 149.172 31.7633 148.659 31.91V49.95C149.282 50.4633 150.18 50.9583 151.354 51.435C152.527 51.9117 153.81 52.15 155.204 52.15C156.67 52.15 157.917 51.8933 158.944 51.38C160.007 50.83 160.869 50.0967 161.529 49.18C162.189 48.2267 162.665 47.1267 162.959 45.88C163.252 44.5967 163.399 43.2217 163.399 41.755ZM168.734 41.755C168.734 43.9183 168.44 45.9167 167.854 47.75C167.304 49.5833 166.479 51.16 165.379 52.48C164.279 53.8 162.922 54.8267 161.309 55.56C159.732 56.2933 157.917 56.66 155.864 56.66C154.214 56.66 152.747 56.44 151.464 56C150.217 55.56 149.282 55.1383 148.659 54.735V66.175H143.544V28.28C144.754 27.9867 146.257 27.675 148.054 27.345C149.887 26.9783 151.995 26.795 154.379 26.795C156.579 26.795 158.559 27.1433 160.319 27.84C162.079 28.5367 163.582 29.5267 164.829 30.81C166.075 32.0933 167.029 33.67 167.689 35.54C168.385 37.3733 168.734 39.445 168.734 41.755ZM174.336 41.755C174.336 39.225 174.703 37.025 175.436 35.155C176.17 33.2483 177.141 31.6717 178.351 30.425C179.561 29.1783 180.955 28.2433 182.531 27.62C184.108 26.9967 185.721 26.685 187.371 26.685C191.221 26.685 194.173 27.895 196.226 30.315C198.28 32.6983 199.306 36.3467 199.306 41.26C199.306 41.48 199.306 41.7733 199.306 42.14C199.306 42.47 199.288 42.7817 199.251 43.075H179.671C179.891 46.045 180.753 48.3 182.256 49.84C183.76 51.38 186.106 52.15 189.296 52.15C191.093 52.15 192.596 52.0033 193.806 51.71C195.053 51.38 195.988 51.0683 196.611 50.775L197.326 55.065C196.703 55.395 195.603 55.7433 194.026 56.11C192.486 56.4767 190.726 56.66 188.746 56.66C186.253 56.66 184.09 56.2933 182.256 55.56C180.46 54.79 178.975 53.745 177.801 52.425C176.628 51.105 175.748 49.5467 175.161 47.75C174.611 45.9167 174.336 43.9183 174.336 41.755ZM193.971 38.95C194.008 36.64 193.421 34.7517 192.211 33.285C191.038 31.7817 189.406 31.03 187.316 31.03C186.143 31.03 185.098 31.2683 184.181 31.745C183.301 32.185 182.55 32.7717 181.926 33.505C181.303 34.2383 180.808 35.0817 180.441 36.035C180.111 36.9883 179.891 37.96 179.781 38.95H193.971ZM206.654 28.225C207.827 27.9317 209.386 27.62 211.329 27.29C213.272 26.96 215.509 26.795 218.039 26.795C220.312 26.795 222.201 27.125 223.704 27.785C225.207 28.4083 226.399 29.3067 227.279 30.48C228.196 31.6167 228.837 32.9917 229.204 34.605C229.571 36.2183 229.754 37.9967 229.754 39.94V56H224.639V41.04C224.639 39.28 224.511 37.7767 224.254 36.53C224.034 35.2833 223.649 34.275 223.099 33.505C222.549 32.735 221.816 32.185 220.899 31.855C219.982 31.4883 218.846 31.305 217.489 31.305C216.939 31.305 216.371 31.3233 215.784 31.36C215.197 31.3967 214.629 31.4517 214.079 31.525C213.566 31.5617 213.089 31.6167 212.649 31.69C212.246 31.7633 211.952 31.8183 211.769 31.855V56H206.654V28.225ZM244.891 52.315C246.981 52.315 248.521 52.04 249.511 51.49C250.538 50.94 251.051 50.06 251.051 48.85C251.051 47.6033 250.556 46.6133 249.566 45.88C248.576 45.1467 246.944 44.3217 244.671 43.405C243.571 42.965 242.508 42.525 241.481 42.085C240.491 41.6083 239.629 41.0583 238.896 40.435C238.163 39.8117 237.576 39.06 237.136 38.18C236.696 37.3 236.476 36.2183 236.476 34.935C236.476 32.405 237.411 30.4067 239.281 28.94C241.151 27.4367 243.699 26.685 246.926 26.685C247.733 26.685 248.539 26.74 249.346 26.85C250.153 26.9233 250.904 27.0333 251.601 27.18C252.298 27.29 252.903 27.4183 253.416 27.565C253.966 27.7117 254.388 27.84 254.681 27.95L253.746 32.35C253.196 32.0567 252.334 31.7633 251.161 31.47C249.988 31.14 248.576 30.975 246.926 30.975C245.496 30.975 244.249 31.2683 243.186 31.855C242.123 32.405 241.591 33.285 241.591 34.495C241.591 35.1183 241.701 35.6683 241.921 36.145C242.178 36.6217 242.544 37.0617 243.021 37.465C243.534 37.8317 244.158 38.18 244.891 38.51C245.624 38.84 246.504 39.1883 247.531 39.555C248.888 40.0683 250.098 40.5817 251.161 41.095C252.224 41.5717 253.123 42.14 253.856 42.8C254.626 43.46 255.213 44.2667 255.616 45.22C256.019 46.1367 256.221 47.2733 256.221 48.63C256.221 51.27 255.231 53.2683 253.251 54.625C251.308 55.9817 248.521 56.66 244.891 56.66C242.361 56.66 240.381 56.44 238.951 56C237.521 55.5967 236.549 55.285 236.036 55.065L236.971 50.665C237.558 50.885 238.493 51.215 239.776 51.655C241.059 52.095 242.764 52.315 244.891 52.315ZM272.462 52.315C273.672 52.315 274.735 52.2967 275.652 52.26C276.605 52.1867 277.394 52.0767 278.017 51.93V43.405C277.65 43.2217 277.045 43.075 276.202 42.965C275.395 42.8183 274.405 42.745 273.232 42.745C272.462 42.745 271.637 42.8 270.757 42.91C269.914 43.02 269.125 43.2583 268.392 43.625C267.695 43.955 267.109 44.4317 266.632 45.055C266.155 45.6417 265.917 46.43 265.917 47.42C265.917 49.2533 266.504 50.5367 267.677 51.27C268.85 51.9667 270.445 52.315 272.462 52.315ZM272.022 26.685C274.075 26.685 275.799 26.96 277.192 27.51C278.622 28.0233 279.759 28.775 280.602 29.765C281.482 30.7183 282.105 31.8733 282.472 33.23C282.839 34.55 283.022 36.0167 283.022 37.63V55.505C282.582 55.5783 281.959 55.6883 281.152 55.835C280.382 55.945 279.502 56.055 278.512 56.165C277.522 56.275 276.44 56.3667 275.267 56.44C274.13 56.55 272.994 56.605 271.857 56.605C270.244 56.605 268.759 56.44 267.402 56.11C266.045 55.78 264.872 55.2667 263.882 54.57C262.892 53.8367 262.122 52.8833 261.572 51.71C261.022 50.5367 260.747 49.125 260.747 47.475C260.747 45.8983 261.059 44.5417 261.682 43.405C262.342 42.2683 263.222 41.3517 264.322 40.655C265.422 39.9583 266.705 39.445 268.172 39.115C269.639 38.785 271.179 38.62 272.792 38.62C273.305 38.62 273.837 38.6567 274.387 38.73C274.937 38.7667 275.45 38.84 275.927 38.95C276.44 39.0233 276.88 39.0967 277.247 39.17C277.614 39.2433 277.87 39.2983 278.017 39.335V37.905C278.017 37.0617 277.925 36.2367 277.742 35.43C277.559 34.5867 277.229 33.8533 276.752 33.23C276.275 32.57 275.615 32.0567 274.772 31.69C273.965 31.2867 272.902 31.085 271.582 31.085C269.895 31.085 268.41 31.2133 267.127 31.47C265.88 31.69 264.945 31.9283 264.322 32.185L263.717 27.95C264.377 27.6567 265.477 27.3817 267.017 27.125C268.557 26.8317 270.225 26.685 272.022 26.685Z" fill="#7289DA"/>
</svg>
