<svg width="50" height="50" viewBox="0 0 50 50" fill="none" xmlns="http://www.w3.org/2000/svg">
<circle cx="25" cy="25" r="25" fill="#0E7572"/>
<path d="M27.0352 38.7656C26.3711 39.1823 25.6159 39.3906 24.7695 39.3906C23.9232 39.3906 23.168 39.1823 22.5039 38.7656C21.8398 39.1823 21.2214 39.3906 20.6484 39.3906C20.0885 39.3906 19.6263 39.3385 19.2617 39.2344C18.8971 39.1432 18.5781 39.013 18.3047 38.8438C17.7448 38.5052 17.4648 38.082 17.4648 37.5742C17.4648 37.3138 17.5365 37.0859 17.6797 36.8906C17.9661 37.112 18.3307 37.2227 18.7734 37.2227C19.9323 37.2227 20.7331 36.7279 21.1758 35.7383V26.1875C21.1758 25.5885 21.0521 25.1458 20.8047 24.8594C20.4141 24.3776 19.7435 23.9023 18.793 23.4336C19.6784 23.0299 20.2513 22.6719 20.5117 22.3594C20.9544 21.8516 21.1758 21.2786 21.1758 20.6406V12.3984C20.7331 11.3958 19.9323 10.8945 18.7734 10.8945C18.3307 10.8945 17.9661 11.0052 17.6797 11.2266C17.5365 11.0312 17.4648 10.8099 17.4648 10.5625C17.4648 10.3021 17.5365 10.0612 17.6797 9.83984C17.8359 9.61849 18.0443 9.42969 18.3047 9.27344C18.9036 8.90885 19.5872 8.72656 20.3555 8.72656C21.1367 8.72656 21.8529 8.94141 22.5039 9.37109C23.181 8.94141 23.9362 8.72656 24.7695 8.72656C25.6029 8.72656 26.3581 8.94141 27.0352 9.37109C27.6862 8.94141 28.2982 8.72656 28.8711 8.72656C29.444 8.72656 29.9128 8.77865 30.2773 8.88281C30.6419 8.97396 30.9609 9.10417 31.2344 9.27344C31.7943 9.61198 32.0742 10.0352 32.0742 10.543C32.0742 10.8034 32.0026 11.0312 31.8594 11.2266C31.5729 11.0052 31.2083 10.8945 30.7656 10.8945C29.6068 10.8945 28.806 11.3958 28.3633 12.3984V20.6406C28.3633 21.2786 28.5 21.7539 28.7734 22.0664C29.2031 22.5742 29.8607 23.0299 30.7461 23.4336C29.7956 23.9023 29.1901 24.2865 28.9297 24.5859C28.5521 25.0547 28.3633 25.5885 28.3633 26.1875V35.7383C28.806 36.7279 29.6068 37.2227 30.7656 37.2227C31.2083 37.2227 31.5729 37.112 31.8594 36.8906C32.0026 37.0859 32.0742 37.3138 32.0742 37.5742C32.0742 37.8216 31.9961 38.056 31.8398 38.2773C31.6966 38.4987 31.4948 38.6875 31.2344 38.8438C30.6354 39.2083 29.9518 39.3906 29.1836 39.3906C28.4154 39.3906 27.6992 39.1823 27.0352 38.7656ZM23.0508 33.8242C23.7018 33.5768 24.0599 32.724 24.125 31.2656C24.2031 29.8073 24.2422 27.7891 24.2422 25.2109C24.2422 22.6328 24.2357 20.9206 24.2227 20.0742C24.2227 19.2148 24.2161 18.5247 24.2031 18.0039C24.1641 16.4674 24.0143 15.543 23.7539 15.2305C23.5065 14.9049 23.2721 14.6901 23.0508 14.5859C23.0508 19.1172 22.9727 21.6953 22.8164 22.3203C22.6341 22.8411 22.1914 23.2122 21.4883 23.4336C22.2695 23.707 22.7122 24.0391 22.8164 24.4297C22.9727 25.0547 23.0508 27.3398 23.0508 31.2852V33.8242Z" fill="white"/>
</svg>
