<?xml version="1.0" encoding="UTF-8"?><svg xmlns="http://www.w3.org/2000/svg" xmlns:xlink="http://www.w3.org/1999/xlink" contentScriptType="text/ecmascript" width="375" zoomAndPan="magnify" contentStyleType="text/css" viewBox="0 0 375 374.999991" height="374.999991" preserveAspectRatio="xMidYMid meet" version="1.0"><defs><clipPath id="clip-0"><path d="M 51 66.046875 L 273 66.046875 L 273 261 L 51 261 Z M 51 66.046875 " clip-rule="nonzero"/></clipPath><clipPath id="clip-1"><path d="M 20.5 97 L 354.25 97 L 354.25 286 L 20.5 286 Z M 20.5 97 " clip-rule="nonzero"/></clipPath></defs><g clip-path="url(#clip-0)"><path fill="rgb(3.919983%, 14.509583%, 25.099182%)" d="M 95.855469 248.546875 L 94.21875 247.863281 C 78.675781 241.320312 64.480469 232.570312 51.941406 221.992188 C 51.457031 221.582031 51.171875 220.964844 51.171875 220.328125 L 51.171875 155.84375 C 51.171875 154.671875 52.117188 153.722656 53.289062 153.71875 C 67.832031 153.605469 82.226562 152.523438 96.394531 150.507812 C 97.675781 150.324219 98.828125 151.3125 98.828125 152.613281 L 98.828125 246.582031 C 98.828125 248.101562 97.269531 249.140625 95.855469 248.546875 Z M 153.996094 136.742188 C 139.960938 141.519531 125.5625 145.316406 110.890625 148.097656 C 109.882812 148.289062 109.15625 149.164062 109.15625 150.191406 L 109.15625 251.726562 C 109.15625 252.675781 109.777344 253.523438 110.6875 253.800781 C 125.074219 258.152344 139.835938 260.484375 154.628906 260.773438 C 155.828125 260.796875 156.816406 259.8125 156.816406 258.613281 L 156.816406 138.757812 C 156.8125 137.285156 155.378906 136.269531 153.996094 136.742188 Z M 211.574219 110.445312 C 197.730469 118.53125 183.332031 125.535156 168.480469 131.414062 C 167.667969 131.738281 167.132812 132.515625 167.132812 133.390625 L 167.132812 258.195312 C 167.132812 259.4375 168.191406 260.441406 169.425781 260.351562 C 184.277344 259.28125 199.03125 256.160156 213.359375 250.988281 C 214.214844 250.675781 214.785156 249.855469 214.785156 248.953125 L 214.785156 112.285156 C 214.792969 110.621094 213.007812 109.613281 211.574219 110.445312 Z M 269.167969 67.429688 C 255.664062 80.085938 241.25 91.449219 226.074219 101.441406 C 225.472656 101.839844 225.113281 102.503906 225.113281 103.214844 L 225.113281 242.875 C 225.113281 244.441406 226.75 245.503906 228.171875 244.832031 C 244.570312 237.070312 259.363281 226.816406 272.113281 214.449219 C 272.535156 214.039062 272.769531 213.476562 272.769531 212.886719 L 272.769531 68.976562 C 272.769531 67.097656 270.539062 66.152344 269.167969 67.429688 Z M 269.167969 67.429688 " fill-opacity="1" fill-rule="nonzero"/></g><g clip-path="url(#clip-1)"><path fill="rgb(3.919983%, 14.509583%, 25.099182%)" d="M 290.960938 166.457031 L 306.816406 169.597656 C 308.15625 169.863281 308.925781 171.308594 308.382812 172.558594 C 299.820312 192.324219 287.714844 209.863281 272.769531 224.527344 C 259.097656 237.949219 243.023438 248.914062 225.113281 256.957031 C 223.355469 257.75 221.597656 258.546875 219.804688 259.277344 C 218.148438 259.953125 216.464844 260.5625 214.792969 261.183594 C 199.285156 266.945312 183.253906 270.292969 167.136719 271.21875 C 163.699219 271.417969 160.253906 271.542969 156.8125 271.523438 C 140.765625 271.425781 124.734375 268.921875 109.15625 264.046875 C 105.683594 262.957031 102.246094 261.714844 98.828125 260.394531 C 97.289062 259.800781 95.742188 259.226562 94.21875 258.582031 C 78.351562 251.90625 63.898438 242.929688 51.171875 232.054688 C 39.355469 221.960938 29.027344 210.230469 20.5 197.113281 C 38.628906 229.730469 67.386719 256.730469 104.417969 272.335938 C 191.476562 309.007812 291.609375 268.871094 329.546875 182.671875 C 330.09375 181.414062 331.664062 180.980469 332.765625 181.800781 L 347 192.34375 C 348.386719 193.371094 350.339844 192.429688 350.417969 190.710938 L 354.195312 99.351562 C 354.28125 97.367188 351.84375 96.347656 350.488281 97.796875 L 289.808594 162.898438 C 288.667969 164.121094 289.316406 166.132812 290.960938 166.457031 Z M 290.960938 166.457031 " fill-opacity="1" fill-rule="nonzero"/></g></svg>