<svg xmlns="http://www.w3.org/2000/svg" width="375" viewBox="0 0 375 375" height="375" version="1.0"><defs><clipPath id="a"><path d="M 55.792969 55.792969 L 187.769531 55.792969 L 187.769531 319.042969 L 55.792969 319.042969 Z M 55.792969 55.792969"/></clipPath><clipPath id="b"><path d="M 55.792969 55.792969 L 319 55.792969 L 319 187.769531 L 55.792969 187.769531 Z M 55.792969 55.792969"/></clipPath><clipPath id="c"><path d="M 55.792969 187 L 319.023438 187 L 319.023438 319.042969 L 55.792969 319.042969 Z M 55.792969 187"/></clipPath><clipPath id="d"><path d="M 187 55.792969 L 319 55.792969 L 319 319 L 187 319 Z M 187 55.792969"/></clipPath></defs><g clip-path="url(#a)"><path fill="#233DFF" d="M 55.792969 55.800781 L 55.792969 99.542969 L 143.671875 187.40625 L 55.792969 275.292969 L 55.792969 319.046875 L 187.425781 187.40625 L 55.792969 55.800781"/></g><g clip-path="url(#b)"><path fill="#5CB6F9" d="M 318.988281 55.847656 L 275.246094 55.847656 L 187.425781 143.667969 L 99.605469 55.847656 L 55.828125 55.847656 L 187.425781 187.425781 L 318.988281 55.847656"/></g><g clip-path="url(#c)"><path fill="#5865F2" d="M 99.605469 319.058594 L 187.425781 231.238281 L 275.246094 319.058594 L 319.023438 319.058594 L 187.425781 187.425781 L 55.792969 319.058594 L 99.605469 319.058594"/></g><g clip-path="url(#d)"><path fill="#CAE8FF" d="M 318.96875 318.996094 L 318.96875 275.175781 L 231.226562 187.40625 L 318.96875 99.660156 L 318.96875 55.847656 L 187.410156 187.40625 L 318.96875 318.996094"/></g></svg>