<svg width="1840" height="1048" viewBox="0 0 1840 1048" fill="none" xmlns="http://www.w3.org/2000/svg">
<path d="M160.964 1004.2C165.805 1010.47 173.39 1014.5 181.923 1014.5H1666.17C1674.42 1014.5 1681.79 1010.73 1686.64 1004.81C1690.39 1000.24 1692.64 994.382 1692.64 970.324V74.215C1692.64 43.322 1687.85 27.422 1677.02 16.357C1665.41 4.493 1652.94 0 1625.59 0H227.794C196.258 0 179.758 5.853 168.193 18.698C158.964 28.95 155.444 43.059 155.444 74.215V970.324C155.444 994.099 157.503 999.72 160.964 1004.2V1004.2Z" fill="#F3F4F5"/>
<path fill-rule="evenodd" clip-rule="evenodd" d="M0 1012.94H1840V1026.05H0V1012.94V1012.94Z" fill="url(#paint0_linear_58:52)"/>
<g opacity="0.474">
<path opacity="0.474" d="M756.982 1012.94H1084.63V1018.67C1084.63 1021.84 1082.09 1024.41 1078.88 1024.41H762.739C761.984 1024.41 761.235 1024.27 760.536 1023.98C759.837 1023.69 759.202 1023.27 758.667 1022.74C758.132 1022.2 757.707 1021.57 757.418 1020.87C757.129 1020.17 756.981 1019.43 756.982 1018.67V1012.94V1012.94Z" fill="url(#paint1_linear_58:52)"/>
<path opacity="0.474" d="M756.982 1012.94H1084.63V1018.67C1084.63 1021.84 1082.09 1024.41 1078.88 1024.41H762.739C761.984 1024.41 761.235 1024.27 760.536 1023.98C759.837 1023.69 759.202 1023.27 758.667 1022.74C758.132 1022.2 757.707 1021.57 757.418 1020.87C757.129 1020.17 756.981 1019.43 756.982 1018.67V1012.94V1012.94Z" fill="white"/>
</g>
<path fill-rule="evenodd" clip-rule="evenodd" d="M923.228 1024.41L1840 1026.05C1840 1026.05 1795.89 1047.37 1546.25 1047.37H923.228H293.754C44.242 1047.37 0 1026.05 0 1026.05L923.228 1024.41V1024.41Z" fill="url(#paint2_linear_58:52)"/>
<path d="M224 72H1624V949H224V72Z" fill="#E8EBEF"/>
<defs>
<linearGradient id="paint0_linear_58:52" x1="0" y1="1012.94" x2="1840" y2="1012.94" gradientUnits="userSpaceOnUse">
<stop stop-color="#B9B9B9" stop-opacity="0.7"/>
<stop offset="0.029" stop-color="#EBEBEB"/>
<stop offset="0.113" stop-color="#FAFAFA"/>
<stop offset="0.229" stop-color="#E5E5E6"/>
<stop offset="0.405" stop-color="#E7E7E7"/>
<stop offset="0.595" stop-color="#E7E7E7"/>
<stop offset="0.741" stop-color="#E5E5E6"/>
<stop offset="0.875" stop-color="#FAFAFA"/>
<stop offset="0.973" stop-color="#DFDFE0"/>
<stop offset="1" stop-color="#C1C1C1"/>
</linearGradient>
<linearGradient id="paint1_linear_58:52" x1="756.982" y1="1018.67" x2="1084.63" y2="1018.67" gradientUnits="userSpaceOnUse">
<stop stop-color="#898A8C"/>
<stop offset="0.022" stop-color="#BCBDBF"/>
<stop offset="0.066" stop-color="#E0E1E1"/>
<stop offset="0.129" stop-color="#EDEEEF"/>
<stop offset="0.332" stop-color="#F0F1F2"/>
<stop offset="0.514" stop-color="#EEEFF0"/>
<stop offset="0.73" stop-color="#EEEFF0"/>
<stop offset="0.935" stop-color="#DFE0E1"/>
<stop offset="0.977" stop-color="#BFC0C2"/>
<stop offset="1" stop-color="#97989A"/>
</linearGradient>
<linearGradient id="paint2_linear_58:52" x1="920" y1="1024.41" x2="920" y2="1047.37" gradientUnits="userSpaceOnUse">
<stop stop-color="#E0E0E0"/>
<stop offset="1" stop-color="#BFBFBF"/>
</linearGradient>
</defs>
</svg>
