<svg width="70" height="70" viewBox="0 0 70 70" fill="none" xmlns="http://www.w3.org/2000/svg">
<circle cx="35" cy="35" r="35" fill="#7289DA"/>
<path d="M30.4043 15.0518C32.1589 15.0518 33.6359 15.9917 34.8354 17.8716C34.8892 17.8 34.9518 17.7015 35.0234 17.5762C35.113 17.4508 35.3009 17.2271 35.5874 16.9048C35.8918 16.5646 36.2051 16.2692 36.5273 16.0186C37.3688 15.374 38.2371 15.0518 39.1323 15.0518C40.0275 15.0518 40.7078 15.186 41.1733 15.4546C41.6567 15.7231 41.9342 15.9827 42.0059 16.2334L42.1133 16.6362C40.8779 17.8358 40.0275 19.098 39.562 20.4229C39.0965 21.7477 38.8638 23.4396 38.8638 25.4985C38.8638 27.5396 38.9354 29.1688 39.0786 30.3862C39.2218 31.5858 39.4009 32.5078 39.6157 33.1523C39.8306 33.7969 40.0633 34.3429 40.314 34.7905C40.5825 35.2202 40.8242 35.5156 41.0391 35.6768C41.5404 36.0885 41.791 36.3929 41.791 36.5898C41.791 36.7868 41.6925 36.9748 41.4956 37.1538C41.2987 37.3328 41.057 37.6014 40.7705 37.9595C40.484 38.3175 40.1976 38.792 39.9111 39.3828C39.2129 40.7972 38.8638 43.0083 38.8638 46.0161C38.8638 49.0239 39.0965 51.2529 39.562 52.7031C40.0275 54.1354 40.8779 55.4782 42.1133 56.7314C42.1133 57.376 41.612 57.8594 40.6094 58.1816C40.2334 58.2891 39.7052 58.3428 39.0249 58.3428C38.3625 58.3428 37.6642 58.0832 36.9302 57.564C36.1961 57.0448 35.668 56.5345 35.3457 56.0332L34.8354 55.2544C34.7638 55.4334 34.549 55.7467 34.1909 56.1943C33.8328 56.6419 33.4927 57 33.1704 57.2686C32.311 57.9847 31.5054 58.3428 30.7534 58.3428C30.0194 58.3428 29.4644 58.2891 29.0884 58.1816C28.7124 58.0742 28.4349 57.9399 28.2559 57.7788C27.862 57.4207 27.6382 57.0716 27.5845 56.7314C28.8198 55.4782 29.6702 54.1354 30.1357 52.7031C30.6012 51.2529 30.834 49.4447 30.834 47.2783C30.834 45.0941 30.7355 43.3843 30.5386 42.1489C30.3416 40.9136 30.0999 40.0005 29.8135 39.4097C29.527 38.8009 29.2316 38.3175 28.9272 37.9595C28.6408 37.6014 28.3991 37.3328 28.2021 37.1538C28.0052 36.9748 27.9067 36.8047 27.9067 36.6436C27.9067 36.4824 28.0052 36.3123 28.2021 36.1333C28.3991 35.9543 28.6408 35.6947 28.9272 35.3545C29.2316 35.0143 29.527 34.5399 29.8135 33.9312C30.4938 32.481 30.834 30.1982 30.834 27.083C30.834 23.9678 30.6012 21.7477 30.1357 20.4229C29.6702 19.098 28.8198 17.8358 27.5845 16.6362C27.5845 15.9917 28.0768 15.5173 29.0615 15.2129C29.4554 15.1055 29.903 15.0518 30.4043 15.0518Z" fill="white"/>
</svg>
