<svg xmlns="http://www.w3.org/2000/svg" xmlns:xlink="http://www.w3.org/1999/xlink" width="375" viewBox="0 0 375 375" height="375" version="1.0"><defs><g id="e"><path d="M 3.09375 0 L 3.09375 -28.5625 L 10.84375 -28.5625 L 10.84375 0 Z M 3.09375 0"/></g><g id="f"><path d="M 29.8125 0 L 29.8125 -12.03125 C 29.8125 -13.53125 29.601562 -14.65625 29.1875 -15.40625 C 28.78125 -16.15625 28.132812 -16.53125 27.25 -16.53125 C 26.070312 -16.53125 25.207031 -16.023438 24.65625 -15.015625 C 24.113281 -14.015625 23.84375 -12.445312 23.84375 -10.3125 L 23.84375 0 L 16.1875 0 L 16.1875 -12.03125 C 16.1875 -13.53125 15.988281 -14.65625 15.59375 -15.40625 C 15.207031 -16.15625 14.582031 -16.53125 13.71875 -16.53125 C 12.519531 -16.53125 11.644531 -15.992188 11.09375 -14.921875 C 10.550781 -13.859375 10.28125 -12.113281 10.28125 -9.6875 L 10.28125 0 L 2.640625 0 L 2.640625 -22.125 L 8.40625 -22.125 L 9.359375 -19.390625 L 9.8125 -19.390625 C 10.394531 -20.410156 11.242188 -21.1875 12.359375 -21.71875 C 13.472656 -22.25 14.738281 -22.515625 16.15625 -22.515625 C 19.34375 -22.515625 21.582031 -21.546875 22.875 -19.609375 L 23.484375 -19.609375 C 24.109375 -20.523438 24.972656 -21.238281 26.078125 -21.75 C 27.191406 -22.257812 28.421875 -22.515625 29.765625 -22.515625 C 32.378906 -22.515625 34.3125 -21.84375 35.5625 -20.5 C 36.8125 -19.164062 37.4375 -17.128906 37.4375 -14.390625 L 37.4375 0 Z M 29.8125 0"/></g><g id="g"><path d="M 15.921875 0.390625 C 14.796875 0.390625 13.789062 0.207031 12.90625 -0.15625 C 12.019531 -0.53125 11.144531 -1.203125 10.28125 -2.171875 L 9.921875 -2.171875 C 10.160156 -0.617188 10.28125 0.34375 10.28125 0.71875 L 10.28125 9.609375 L 2.640625 9.609375 L 2.640625 -22.125 L 8.84375 -22.125 L 9.921875 -19.3125 L 10.28125 -19.3125 C 11.695312 -21.445312 13.65625 -22.515625 16.15625 -22.515625 C 18.601562 -22.515625 20.519531 -21.5 21.90625 -19.46875 C 23.300781 -17.4375 24 -14.648438 24 -11.109375 C 24 -7.546875 23.273438 -4.738281 21.828125 -2.6875 C 20.378906 -0.632812 18.410156 0.390625 15.921875 0.390625 Z M 13.359375 -16.53125 C 12.242188 -16.53125 11.457031 -16.128906 11 -15.328125 C 10.550781 -14.523438 10.3125 -13.335938 10.28125 -11.765625 L 10.28125 -11.15625 C 10.28125 -9.25 10.53125 -7.875 11.03125 -7.03125 C 11.539062 -6.1875 12.34375 -5.765625 13.4375 -5.765625 C 14.414062 -5.765625 15.125 -6.179688 15.5625 -7.015625 C 16.007812 -7.859375 16.234375 -9.25 16.234375 -11.1875 C 16.234375 -13.09375 16.007812 -14.457031 15.5625 -15.28125 C 15.125 -16.113281 14.390625 -16.53125 13.359375 -16.53125 Z M 13.359375 -16.53125"/></g><g id="h"><path d="M 13.328125 0.390625 C 9.640625 0.390625 6.773438 -0.585938 4.734375 -2.546875 C 2.703125 -4.503906 1.6875 -7.296875 1.6875 -10.921875 C 1.6875 -14.660156 2.628906 -17.523438 4.515625 -19.515625 C 6.398438 -21.515625 9.09375 -22.515625 12.59375 -22.515625 C 15.925781 -22.515625 18.5 -21.644531 20.3125 -19.90625 C 22.132812 -18.175781 23.046875 -15.675781 23.046875 -12.40625 L 23.046875 -9 L 9.390625 -9 C 9.441406 -7.769531 9.894531 -6.800781 10.75 -6.09375 C 11.601562 -5.394531 12.765625 -5.046875 14.234375 -5.046875 C 15.578125 -5.046875 16.8125 -5.171875 17.9375 -5.421875 C 19.0625 -5.671875 20.285156 -6.101562 21.609375 -6.71875 L 21.609375 -1.234375 C 20.410156 -0.617188 19.171875 -0.195312 17.890625 0.03125 C 16.617188 0.269531 15.097656 0.390625 13.328125 0.390625 Z M 12.875 -17.328125 C 11.976562 -17.328125 11.222656 -17.039062 10.609375 -16.46875 C 10.003906 -15.90625 9.648438 -15.019531 9.546875 -13.8125 L 16.109375 -13.8125 C 16.085938 -14.875 15.785156 -15.722656 15.203125 -16.359375 C 14.628906 -17.003906 13.851562 -17.328125 12.875 -17.328125 Z M 12.875 -17.328125"/></g><g id="i"><path d="M 16.609375 0 L 16.609375 -12.078125 C 16.609375 -13.546875 16.394531 -14.65625 15.96875 -15.40625 C 15.539062 -16.15625 14.859375 -16.53125 13.921875 -16.53125 C 12.640625 -16.53125 11.710938 -16.015625 11.140625 -14.984375 C 10.566406 -13.953125 10.28125 -12.1875 10.28125 -9.6875 L 10.28125 0 L 2.640625 0 L 2.640625 -22.125 L 8.40625 -22.125 L 9.359375 -19.390625 L 9.8125 -19.390625 C 10.457031 -20.429688 11.351562 -21.210938 12.5 -21.734375 C 13.65625 -22.253906 14.984375 -22.515625 16.484375 -22.515625 C 18.929688 -22.515625 20.832031 -21.804688 22.1875 -20.390625 C 23.550781 -18.972656 24.234375 -16.972656 24.234375 -14.390625 L 24.234375 0 Z M 16.609375 0"/></g><g id="j"><path d="M 19.734375 -6.796875 C 19.734375 -4.429688 18.925781 -2.640625 17.3125 -1.421875 C 15.695312 -0.210938 13.378906 0.390625 10.359375 0.390625 C 8.710938 0.390625 7.285156 0.300781 6.078125 0.125 C 4.867188 -0.0507812 3.628906 -0.375 2.359375 -0.84375 L 2.359375 -6.953125 C 3.546875 -6.429688 4.84375 -6 6.25 -5.65625 C 7.664062 -5.320312 8.929688 -5.15625 10.046875 -5.15625 C 11.691406 -5.15625 12.515625 -5.535156 12.515625 -6.296875 C 12.515625 -6.679688 12.285156 -7.023438 11.828125 -7.328125 C 11.367188 -7.640625 10.023438 -8.238281 7.796875 -9.125 C 5.765625 -9.957031 4.34375 -10.90625 3.53125 -11.96875 C 2.726562 -13.03125 2.328125 -14.375 2.328125 -16 C 2.328125 -18.050781 3.117188 -19.648438 4.703125 -20.796875 C 6.296875 -21.941406 8.546875 -22.515625 11.453125 -22.515625 C 12.910156 -22.515625 14.28125 -22.351562 15.5625 -22.03125 C 16.84375 -21.71875 18.171875 -21.253906 19.546875 -20.640625 L 17.484375 -15.71875 C 16.460938 -16.175781 15.382812 -16.5625 14.25 -16.875 C 13.125 -17.195312 12.203125 -17.359375 11.484375 -17.359375 C 10.234375 -17.359375 9.609375 -17.054688 9.609375 -16.453125 C 9.609375 -16.066406 9.828125 -15.738281 10.265625 -15.46875 C 10.703125 -15.207031 11.960938 -14.664062 14.046875 -13.84375 C 15.597656 -13.207031 16.753906 -12.582031 17.515625 -11.96875 C 18.273438 -11.363281 18.832031 -10.644531 19.1875 -9.8125 C 19.550781 -8.988281 19.734375 -7.984375 19.734375 -6.796875 Z M 19.734375 -6.796875"/></g><g id="k"><path d="M 17.078125 0 L 15.609375 -2.9375 L 15.453125 -2.9375 C 14.421875 -1.65625 13.367188 -0.78125 12.296875 -0.3125 C 11.234375 0.15625 9.859375 0.390625 8.171875 0.390625 C 6.085938 0.390625 4.445312 -0.234375 3.25 -1.484375 C 2.050781 -2.734375 1.453125 -4.492188 1.453125 -6.765625 C 1.453125 -9.117188 2.269531 -10.867188 3.90625 -12.015625 C 5.550781 -13.171875 7.925781 -13.820312 11.03125 -13.96875 L 14.734375 -14.078125 L 14.734375 -14.390625 C 14.734375 -16.210938 13.832031 -17.125 12.03125 -17.125 C 10.414062 -17.125 8.363281 -16.578125 5.875 -15.484375 L 3.671875 -20.53125 C 6.253906 -21.851562 9.507812 -22.515625 13.4375 -22.515625 C 16.28125 -22.515625 18.476562 -21.8125 20.03125 -20.40625 C 21.582031 -19 22.359375 -17.035156 22.359375 -14.515625 L 22.359375 0 Z M 11.40625 -5 C 12.332031 -5 13.125 -5.289062 13.78125 -5.875 C 14.4375 -6.46875 14.765625 -7.234375 14.765625 -8.171875 L 14.765625 -9.890625 L 13.015625 -9.8125 C 10.492188 -9.71875 9.234375 -8.789062 9.234375 -7.03125 C 9.234375 -5.675781 9.957031 -5 11.40625 -5 Z M 11.40625 -5"/></g><clipPath id="a"><path d="M 54.835938 153.394531 L 96.949219 153.394531 L 96.949219 237.394531 L 54.835938 237.394531 Z M 54.835938 153.394531"/></clipPath><clipPath id="b"><path d="M 54.835938 153.394531 L 138.828125 153.394531 L 138.828125 195.503906 L 54.835938 195.503906 Z M 54.835938 153.394531"/></clipPath><clipPath id="c"><path d="M 54.835938 195 L 138.828125 195 L 138.828125 237.394531 L 54.835938 237.394531 Z M 54.835938 195"/></clipPath><clipPath id="d"><path d="M 96.386719 153.394531 L 138.828125 153.394531 L 138.828125 237.394531 L 96.386719 237.394531 Z M 96.386719 153.394531"/></clipPath></defs><g clip-path="url(#a)"><path fill="#233DFF" d="M 54.835938 153.394531 L 54.835938 167.355469 L 82.878906 195.390625 L 54.835938 223.433594 L 54.835938 237.394531 L 96.839844 195.390625 L 54.835938 153.394531"/></g><g clip-path="url(#b)"><path fill="#5CB6F9" d="M 138.820312 153.410156 L 124.859375 153.410156 L 96.839844 181.433594 L 68.816406 153.410156 L 54.847656 153.410156 L 96.839844 195.394531 L 138.820312 153.410156"/></g><g clip-path="url(#c)"><path fill="#5865F2" d="M 68.816406 237.398438 L 96.839844 209.375 L 124.859375 237.398438 L 138.828125 237.398438 L 96.839844 195.394531 L 54.835938 237.398438 L 68.816406 237.398438"/></g><g clip-path="url(#d)"><path fill="#CAE8FF" d="M 138.8125 237.378906 L 138.8125 223.394531 L 110.8125 195.390625 L 138.8125 167.390625 L 138.8125 153.410156 L 96.832031 195.390625 L 138.8125 237.378906"/></g><g fill="#5865F2"><use x="163.437" y="210.052" xmlns:xlink="http://www.w3.org/1999/xlink" xlink:href="#e" xlink:type="simple" xlink:actuate="onLoad" xlink:show="embed"/></g><g fill="#5865F2"><use x="177.361" y="210.052" xmlns:xlink="http://www.w3.org/1999/xlink" xlink:href="#f" xlink:type="simple" xlink:actuate="onLoad" xlink:show="embed"/></g><g fill="#5865F2"><use x="217.358" y="210.052" xmlns:xlink="http://www.w3.org/1999/xlink" xlink:href="#g" xlink:type="simple" xlink:actuate="onLoad" xlink:show="embed"/></g><g fill="#5865F2"><use x="243.078" y="210.052" xmlns:xlink="http://www.w3.org/1999/xlink" xlink:href="#h" xlink:type="simple" xlink:actuate="onLoad" xlink:show="embed"/></g><g fill="#5865F2"><use x="267.802" y="210.052" xmlns:xlink="http://www.w3.org/1999/xlink" xlink:href="#i" xlink:type="simple" xlink:actuate="onLoad" xlink:show="embed"/></g><g fill="#5865F2"><use x="294.596" y="210.052" xmlns:xlink="http://www.w3.org/1999/xlink" xlink:href="#j" xlink:type="simple" xlink:actuate="onLoad" xlink:show="embed"/></g><g fill="#5865F2"><use x="315.922" y="210.052" xmlns:xlink="http://www.w3.org/1999/xlink" xlink:href="#k" xlink:type="simple" xlink:actuate="onLoad" xlink:show="embed"/></g></svg>